<svg viewBox="0 0 400 300" xmlns="http://www.w3.org/2000/svg"><path d="m274.7 176.11h-16.86v21.27a19.81 19.81 0 0 1 -19.84 19.81h-17.27a9.27 9.27 0 0 0 -9.28 9.28v6.37h-61.45s1-32.55-.59-42.25c-1.11-6.77-4.52-12.69-8.11-19.46-6.51-12.29-13.59-27.4-8.45-55.59 5.87-32.14 29.84-45.45 54.22-47.94 14.81-1.51 29.77 1 40.93 5.63a63 63 0 0 1 12.74 7.09c26.37 19.06 23.6 50.88 23.6 50.88l14.09 39.63a4 4 0 0 1 -3.73 5.28z" fill="#093f68"/><path d="m211.45 233.84h-61.45a1 1 0 0 1 -.72-.3 1 1 0 0 1 -.28-.73c0-.32 1-32.57-.58-42.06-1-6-3.77-11.21-7-17.28l-1-1.87c-7.08-13.36-13.57-28.71-8.55-56.24 5.13-27.93 25.18-45.7 55.13-48.76 14.2-1.44 29.3.64 41.42 5.71a65.17 65.17 0 0 1 12.94 7.2c25.35 18.32 24.2 48.63 24 51.55l14 39.43a5 5 0 0 1 -4.67 6.62h-15.85v20.27a20.82 20.82 0 0 1 -20.84 20.81h-17.27a8.28 8.28 0 0 0 -8.28 8.28v6.37a1 1 0 0 1 -1 1zm-60.43-2h59.43v-5.37a10.29 10.29 0 0 1 10.28-10.28h17.27a18.83 18.83 0 0 0 18.8-18.81v-21.27a1 1 0 0 1 1-1h16.9a3 3 0 0 0 2.78-4l-14.08-39.57a1 1 0 0 1 -.06-.43c0-.31 2.4-31.49-23.18-50a63.23 63.23 0 0 0 -12.54-7c-11.83-4.94-26.57-7-40.44-5.56-17 1.74-46.6 10.18-53.34 47.13-4.91 26.93 1.14 41.35 8.34 54.94l1 1.87c3.18 6 6.19 11.6 7.21 17.9 1.43 8.86.79 35.74.61 41.45z" fill="#093f68"/><path d="m240.74 80.32v90.81h-99.44c-6.51-12.29-13.59-27.4-8.45-55.59 5.87-32.14 29.84-45.45 54.22-47.94 14.81-1.51 29.77 1 40.93 5.63a63 63 0 0 1 12.74 7.09z" fill="#fff"/><path d="m240.75 172.13h-99.45a1 1 0 0 1 -.88-.53c-3.32-6.26-6.72-13.12-8.69-22.09-2.24-10.19-2.19-21.36.14-34.15 5.13-27.93 25.18-45.7 55.13-48.76 14.2-1.44 29.3.64 41.42 5.71a65.17 65.17 0 0 1 12.94 7.2 1 1 0 0 1 .42.81v90.81a1 1 0 0 1 -1.03 1zm-98.85-2h97.85v-89.3a64 64 0 0 0 -12.13-6.68c-11.83-4.94-26.57-7-40.44-5.56-17 1.74-46.6 10.18-53.34 47.13-4.84 26.57.99 40.97 8.06 54.41z" fill="#093f68"/><path d="m274.7 176.11h-16.86v21.27a19.81 19.81 0 0 1 -19.84 19.81h-20a16.32 16.32 0 0 1 -16.32-16.33v-50.86h-14.61v-82.4c14.81-1.51 29.77 1 40.93 5.63 39.93 16.7 36.34 58 36.34 58l14.09 39.63a4 4 0 0 1 -3.73 5.25z" fill="#68e1fd"/><path d="m238 218.19h-20a17.34 17.34 0 0 1 -17.32-17.33v-49.86h-13.61a1 1 0 0 1 -1-1v-82.4a1 1 0 0 1 .9-1c14.2-1.44 29.3.64 41.42 5.71 38.6 16.15 37.16 55.39 37 58.75l14 39.43a5 5 0 0 1 -4.67 6.62h-15.88v20.27a20.84 20.84 0 0 1 -20.84 20.81zm-50-69.19h13.64a1 1 0 0 1 1 1v50.86a15.34 15.34 0 0 0 15.36 15.33h20a18.83 18.83 0 0 0 18.81-18.81v-21.27a1 1 0 0 1 1-1h16.89a3 3 0 0 0 2.78-4l-14.08-39.57a1 1 0 0 1 -.06-.43c0-.4 3-40.74-35.72-57-11.57-4.83-25.93-6.88-39.55-5.64z" fill="#093f68"/><circle cx="227.64" cy="126.23" fill="#093f68" r="5.65"/><path d="m227.64 132.88a6.65 6.65 0 1 1 6.65-6.65 6.65 6.65 0 0 1 -6.65 6.65zm0-11.3a4.65 4.65 0 1 0 4.65 4.65 4.65 4.65 0 0 0 -4.65-4.65z" fill="#093f68"/><circle cx="192.86" cy="159.93" fill="#f56132" r="19.31"/><path d="m192.86 180.24a20.31 20.31 0 1 1 20.31-20.31 20.33 20.33 0 0 1 -20.31 20.31zm0-38.62a18.31 18.31 0 1 0 18.31 18.31 18.33 18.33 0 0 0 -18.31-18.31z" fill="#093f68"/><circle cx="192.86" cy="159.93" fill="#ffbc0e" r="8.85"/><g fill="#093f68"><path d="m192.86 169.77a9.85 9.85 0 1 1 9.85-9.84 9.85 9.85 0 0 1 -9.85 9.84zm0-17.69a7.85 7.85 0 1 0 7.85 7.85 7.85 7.85 0 0 0 -7.85-7.85z"/><path d="m146.74 138.41a1 1 0 0 1 -.68-.27 1 1 0 0 1 -.05-1.42l10.8-11.56v-48.06a1 1 0 0 1 2 0v48.45a1 1 0 0 1 -.27.68l-11.06 11.86a1 1 0 0 1 -.74.32z"/><path d="m144.53 144a4.21 4.21 0 1 1 4.21-4.21 4.22 4.22 0 0 1 -4.21 4.21zm0-6.42a2.21 2.21 0 1 0 2.21 2.21 2.21 2.21 0 0 0 -2.21-2.19z"/><path d="m161.93 152.08a4.21 4.21 0 1 1 4.21-4.21 4.22 4.22 0 0 1 -4.21 4.21zm0-6.42a2.21 2.21 0 1 0 2.21 2.21 2.21 2.21 0 0 0 -2.21-2.21z"/><path d="m144.53 159.94a4.22 4.22 0 1 1 4.21-4.22 4.22 4.22 0 0 1 -4.21 4.22zm0-6.43a2.22 2.22 0 1 0 2.21 2.21 2.22 2.22 0 0 0 -2.21-2.21z"/><path d="m147.74 121.78a4.21 4.21 0 1 1 4.21-4.21 4.22 4.22 0 0 1 -4.21 4.21zm0-6.42a2.21 2.21 0 1 0 2.21 2.21 2.21 2.21 0 0 0 -2.21-2.21z"/><path d="m165.14 136.17a4.21 4.21 0 1 1 4.21-4.21 4.22 4.22 0 0 1 -4.21 4.21zm0-6.42a2.21 2.21 0 1 0 2.21 2.21 2.21 2.21 0 0 0 -2.21-2.21z"/><path d="m180 119.75a4.21 4.21 0 1 1 4.21-4.21 4.22 4.22 0 0 1 -4.21 4.21zm0-6.42a2.21 2.21 0 1 0 2.21 2.21 2.22 2.22 0 0 0 -2.21-2.21z"/><path d="m165.14 129.75a1 1 0 0 1 -1-1v-55.51a1 1 0 0 1 2 0v55.51a1 1 0 0 1 -1 1z"/><path d="m177.85 114.14a1 1 0 0 1 -.64-.23l-7-5.89a1 1 0 0 1 -.36-.77v-36.25a1 1 0 0 1 2 0v35.75l6.69 5.58a1 1 0 0 1 -.65 1.77z"/><path d="m161.93 172.13a1 1 0 0 1 -1-1v-20a1 1 0 1 1 2 0v20a1 1 0 0 1 -1 1z"/><path d="m152.28 171.2a1 1 0 0 1 -1-1v-9.71l-4.06-2.43a1 1 0 0 1 1-1.72l4.54 2.73a1 1 0 0 1 .49.86v10.27a1 1 0 0 1 -.97 1z"/><path d="m147.74 115.36a1 1 0 0 1 -1-1v-29.16a1 1 0 1 1 2 0v29.16a1 1 0 0 1 -1 1z"/><path d="m266.88 233.84h-147.25a1 1 0 0 1 0-2h147.25a1 1 0 0 1 0 2z"/><path d="m249.33 194.2c-5.3 0-11.8-1-15.78-5.29a1 1 0 0 1 1.46-1.37c6.69 7.18 22.46 3.88 22.62 3.85a1 1 0 0 1 1.19.76 1 1 0 0 1 -.77 1.19 44.72 44.72 0 0 1 -8.72.86z"/></g></svg>